{"accessors" : [{"bufferView" : 0, "byteOffset" : 0, "componentType" : 5123, "count" : 8898, "type" : "SCALAR", "max" : [1704], "min" : [0]}, {"bufferView" : 1, "byteOffset" : 0, "componentType" : 5126, "count" : 1705, "type" : "VEC3", "max" : [2.8706471920013428, 1.0643411874771118, 2.4309966564178467], "min" : [-0.3490639925003052, -0.9273013472557068, -0.9036929607391357], "name" : "POSITION"}, {"bufferView" : 1, "byteOffset" : 12, "componentType" : 5126, "count" : 1705, "type" : "VEC3", "max" : [0.9951484799385071, 0.9987075924873352, 0.995115339756012], "min" : [-0.9973300695419312, -0.9987413287162781, -0.9963071346282959], "name" : "NORMAL"}, {"bufferView" : 1, "byteOffset" : 24, "componentType" : 5126, "count" : 1705, "type" : "VEC2", "max" : [0.5497786998748779, 2.129625082015991], "min" : [-0.5497786998748779, -0.172743558883667], "name" : "TEXCOORD_0"}, {"bufferView" : 0, "byteOffset" : 17796, "componentType" : 5123, "count" : 1944, "type" : "SCALAR", "max" : [647], "min" : [0]}, {"bufferView" : 2, "byteOffset" : 0, "componentType" : 5126, "count" : 648, "type" : "VEC3", "max" : [3.2970476150512695, 1.5825481414794922, 2.961106061935425], "min" : [-0.7759169340133667, -1.4461687803268433, -1.433135747909546], "name" : "POSITION"}, {"bufferView" : 2, "byteOffset" : 12, "componentType" : 5126, "count" : 648, "type" : "VEC3", "max" : [1.0000039339065552, 0.9942812323570251, 0.9748743176460266], "min" : [-1.0000044107437134, -0.9942812323570251, -0.9748743176460266], "name" : "NORMAL"}, {"bufferView" : 2, "byteOffset" : 24, "componentType" : 5126, "count" : 648, "type" : "VEC2", "max" : [1.1914777755737305, 1.3141592741012573], "min" : [0.3354102075099945, 0.6858407258987427], "name" : "TEXCOORD_0"}, {"bufferView" : 0, "byteOffset" : 21684, "componentType" : 5123, "count" : 10842, "type" : "SCALAR", "max" : [1926], "min" : [0]}, {"bufferView" : 3, "byteOffset" : 0, "componentType" : 5126, "count" : 1927, "type" : "VEC3", "max" : [3.6799230575561523, 2.0255179405212402, 3.432236433029175], "min" : [-1.1587923765182495, -1.8891223669052124, -1.9033902883529663], "name" : "POSITION"}, {"bufferView" : 3, "byteOffset" : 12, "componentType" : 5126, "count" : 1927, "type" : "VEC3", "max" : [0.991746187210083, 0.9986560940742493, 0.9989497661590576], "min" : [-0.991746187210083, -0.9987208247184753, -0.9989497661590576], "name" : "NORMAL"}, {"bufferView" : 3, "byteOffset" : 24, "componentType" : 5126, "count" : 1927, "type" : "VEC2", "max" : [0.39269909262657166, 2.5185203552246094], "min" : [-0.39269909262657166, -0.4267183542251587], "name" : "TEXCOORD_0"}], "asset" : {"generator" : "Aspose.3D 24.9.1", "version" : "2.0"}, "buffers" : [{"uri" : "data:application/octet-stream;base64,", "byteLength" : 180344}], "bufferViews" : [{"buffer" : 0, "byteOffset" : 0, "byteLength" : 43368, "target" : 34963}, {"buffer" : 0, "byteOffset" : 43372, "byteLength" : 54560, "byteStride" : 32, "target" : 34962}, {"buffer" : 0, "byteOffset" : 97936, "byteLength" : 20736, "byteStride" : 32, "target" : 34962}, {"buffer" : 0, "byteOffset" : 118676, "byteLength" : 61664, "byteStride" : 32, "target" : 34962}], "materials" : [{"name" : "F_94bd6f9c27114720963a29ff3fc2259a", "pbrMetallicRoughness" : {"baseColorFactor" : [0.21586070954799652, 0.21586070954799652, 0.21586070954799652, 1], "metallicFactor" : 0, "roughnessFactor" : 0.20000000298023224}, "emissiveFactor" : [0, 0, 0], "alphaMode" : "OPAQUE", "doubleSided" : false}, {"name" : "F_1480582610ae42d994ff5a2377a33d42", "pbrMetallicRoughness" : {"baseColorFactor" : [0.9999998807907104, 0.9999998807907104, 0.6038272976875305, 1], "metallicFactor" : 0, "roughnessFactor" : 0.20000000298023224}, "emissiveFactor" : [0, 0, 0], "alphaMode" : "OPAQUE", "doubleSided" : false}, {"name" : "F_68c6506db5dd43af80d1cf38ac9718e6", "pbrMetallicRoughness" : {"baseColorFactor" : [0.9999998807907104, 0.9999998807907104, 0.9999998807907104, 1], "metallicFactor" : 0, "roughnessFactor" : 0.20000000298023224}, "emissiveFactor" : [0, 0, 0], "alphaMode" : "OPAQUE", "doubleSided" : false}], "meshes" : [{"primitives" : [{"attributes" : {"POSITION" : 1, "NORMAL" : 2, "TEXCOORD_0" : 3}, "indices" : 0, "material" : 0, "mode" : 4}, {"attributes" : {"POSITION" : 5, "NORMAL" : 6, "TEXCOORD_0" : 7}, "indices" : 4, "material" : 1, "mode" : 4}, {"attributes" : {"POSITION" : 9, "NORMAL" : 10, "TEXCOORD_0" : 11}, "indices" : 8, "material" : 2, "mode" : 4}], "name" : "?????????1"}], "nodes" : [{"matrix" : [10, 0, 0, 0, 0, 10, 0, 0, 0, 0, 10, 0, 0, 0, 0, 1], "mesh" : 0, "name" : "?????????1"}, {"children" : [0], "name" : "cyclohexane_chair"}], "scene" : 0, "scenes" : [{"nodes" : [1]}]}